<svg width="28" height="28" viewBox="0 0 28 28" fill="none" xmlns="http://www.w3.org/2000/svg">
<path d="M13.6815 0.624512C6.1255 0.624512 0 6.75001 0 14.306C0 20.7221 4.41749 26.1061 10.3766 27.5848V18.4871H7.55549V14.306H10.3766V12.5045C10.3766 7.84782 12.4841 5.68942 17.0559 5.68942C17.9228 5.68942 19.4185 5.85961 20.0303 6.02927V9.81905C19.7074 9.78512 19.1465 9.76816 18.4498 9.76816C16.2066 9.76816 15.3397 10.6181 15.3397 12.8273V14.306H19.8087L19.0409 18.4871H15.3397V27.8874C22.1143 27.0693 27.3636 21.3011 27.3636 14.306C27.3631 6.75001 21.2376 0.624512 13.6815 0.624512Z" fill="white"/>
</svg>