<svg width="28" height="28" viewBox="0 0 28 28" fill="none" xmlns="http://www.w3.org/2000/svg">
<g clip-path="url(#clip0_311_2056)">
<path d="M13.8085 3.08826C17.464 3.08826 17.8969 3.10429 19.3345 3.16842C20.6706 3.22721 21.3921 3.45167 21.8731 3.63873C22.5091 3.88457 22.9687 4.18385 23.4443 4.6595C23.9253 5.14049 24.2193 5.59476 24.4651 6.23073C24.6522 6.71173 24.8766 7.43856 24.9354 8.7693C24.9996 10.2123 25.0156 10.6452 25.0156 14.2954C25.0156 17.9509 24.9996 18.3838 24.9354 19.8214C24.8766 21.1575 24.6522 21.879 24.4651 22.36C24.2193 22.996 23.92 23.4556 23.4443 23.9312C22.9634 24.4122 22.5091 24.7062 21.8731 24.952C21.3921 25.139 20.6653 25.3635 19.3345 25.4223C17.8916 25.4864 17.4587 25.5025 13.8085 25.5025C10.153 25.5025 9.72006 25.4864 8.28243 25.4223C6.94634 25.3635 6.22486 25.139 5.74386 24.952C5.10789 24.7062 4.64827 24.4069 4.17263 23.9312C3.69163 23.4502 3.39769 22.996 3.15185 22.36C2.9648 21.879 2.74034 21.1522 2.68155 19.8214C2.61742 18.3784 2.60139 17.9455 2.60139 14.2954C2.60139 10.6398 2.61742 10.2069 2.68155 8.7693C2.74034 7.43321 2.9648 6.71173 3.15185 6.23073C3.39769 5.59476 3.69698 5.13514 4.17263 4.6595C4.65362 4.1785 5.10789 3.88457 5.74386 3.63873C6.22486 3.45167 6.95169 3.22721 8.28243 3.16842C9.72006 3.10429 10.153 3.08826 13.8085 3.08826ZM13.8085 0.624512C10.0942 0.624512 9.62921 0.640545 8.1702 0.704677C6.71654 0.768809 5.71714 1.00396 4.85136 1.34065C3.94816 1.69338 3.18392 2.15834 2.42502 2.92258C1.66078 3.68148 1.19582 4.44572 0.843096 5.34357C0.506402 6.2147 0.271251 7.20875 0.207118 8.66241C0.142986 10.1268 0.126953 10.5917 0.126953 14.306C0.126953 18.0204 0.142986 18.4853 0.207118 19.9443C0.271251 21.398 0.506402 22.3974 0.843096 23.2632C1.19582 24.1664 1.66078 24.9306 2.42502 25.6895C3.18392 26.4484 3.94816 26.9187 4.84601 27.2661C5.71714 27.6028 6.71119 27.8379 8.16485 27.9021C9.62386 27.9662 10.0888 27.9822 13.8031 27.9822C17.5175 27.9822 17.9824 27.9662 19.4414 27.9021C20.8951 27.8379 21.8945 27.6028 22.7603 27.2661C23.6581 26.9187 24.4224 26.4484 25.1813 25.6895C25.9402 24.9306 26.4105 24.1664 26.7578 23.2685C27.0945 22.3974 27.3297 21.4033 27.3938 19.9497C27.458 18.4907 27.474 18.0257 27.474 14.3114C27.474 10.5971 27.458 10.1321 27.3938 8.6731C27.3297 7.21944 27.0945 6.22005 26.7578 5.35426C26.4212 4.44572 25.9562 3.68148 25.192 2.92258C24.4331 2.16368 23.6688 1.69338 22.771 1.346C21.8998 1.0093 20.9058 0.774154 19.4521 0.710021C17.9878 0.640545 17.5228 0.624512 13.8085 0.624512Z" fill="white"/>
<path d="M13.8086 7.27832C9.92858 7.27832 6.78076 10.4261 6.78076 14.3061C6.78076 18.1861 9.92858 21.334 13.8086 21.334C17.6886 21.334 20.8364 18.1861 20.8364 14.3061C20.8364 10.4261 17.6886 7.27832 13.8086 7.27832ZM13.8086 18.8649C11.2914 18.8649 9.24985 16.8233 9.24985 14.3061C9.24985 11.789 11.2914 9.74741 13.8086 9.74741C16.3258 9.74741 18.3673 11.789 18.3673 14.3061C18.3673 16.8233 16.3258 18.8649 13.8086 18.8649Z" fill="white"/>
<path d="M22.7548 7.00009C22.7548 7.90863 22.0173 8.64081 21.1141 8.64081C20.2056 8.64081 19.4734 7.90329 19.4734 7.00009C19.4734 6.09155 20.2109 5.35938 21.1141 5.35938C22.0173 5.35938 22.7548 6.0969 22.7548 7.00009Z" fill="white"/>
</g>
<defs>
<clipPath id="clip0_311_2056">
<rect width="27.3631" height="27.3631" fill="white" transform="translate(0.126953 0.624512)"/>
</clipPath>
</defs>
</svg>
