<svg width="28" height="28" viewBox="0 0 28 28" fill="none" xmlns="http://www.w3.org/2000/svg">
<path d="M25.5927 0.624512H2.27529C1.15832 0.624512 0.255127 1.50633 0.255127 2.59658V26.0102C0.255127 27.1004 1.15832 27.9876 2.27529 27.9876H25.5927C26.7097 27.9876 27.6182 27.1004 27.6182 26.0155V2.59658C27.6182 1.50633 26.7097 0.624512 25.5927 0.624512ZM8.37319 23.9419H4.31149V10.8803H8.37319V23.9419ZM6.34234 9.10065C5.03832 9.10065 3.98548 8.04781 3.98548 6.74914C3.98548 5.45046 5.03832 4.39762 6.34234 4.39762C7.64102 4.39762 8.69385 5.45046 8.69385 6.74914C8.69385 8.04247 7.64102 9.10065 6.34234 9.10065ZM23.5725 23.9419H19.5162V17.5928C19.5162 16.0804 19.4894 14.1297 17.4051 14.1297C15.2941 14.1297 14.9735 15.7811 14.9735 17.4859V23.9419H10.9224V10.8803H14.8131V12.6653H14.8666C15.4064 11.6392 16.7318 10.5543 18.7038 10.5543C22.8136 10.5543 23.5725 13.2586 23.5725 16.7751V23.9419Z" fill="white"/>
</svg>