<svg width="12" height="19" viewBox="0 0 12 19" fill="none" xmlns="http://www.w3.org/2000/svg">
<path d="M5.06906 9.85C5.83906 8.46 7.31906 7.64 8.17906 6.41C9.08906 5.12 8.57906 2.71 5.99906 2.71C4.30906 2.71 3.47906 3.99 3.12906 5.05L0.539062 3.96C1.24906 1.83 3.17906 0 5.98906 0C8.33906 0 9.94906 1.07 10.7691 2.41C11.4691 3.56 11.8791 5.71 10.7991 7.31C9.59906 9.08 8.44906 9.62 7.82906 10.76C7.57906 11.22 7.47906 11.52 7.47906 13H4.58906C4.57906 12.22 4.45906 10.95 5.06906 9.85ZM7.99906 17C7.99906 18.1 7.09906 19 5.99906 19C4.89906 19 3.99906 18.1 3.99906 17C3.99906 15.9 4.89906 15 5.99906 15C7.09906 15 7.99906 15.9 7.99906 17Z" fill="black"/>
</svg>
