<svg width="18" height="17" viewBox="0 0 18 17" fill="none" xmlns="http://www.w3.org/2000/svg">
<path d="M8.88613 0L3.96508 7.65H13.8072L8.88613 0ZM8.88613 3.264L10.613 5.95H7.15034L8.88613 3.264ZM13.8072 9.35C11.5793 9.35 9.78086 11.0585 9.78086 13.175C9.78086 15.2915 11.5793 17 13.8072 17C16.0351 17 17.8335 15.2915 17.8335 13.175C17.8335 11.0585 16.0351 9.35 13.8072 9.35ZM13.8072 15.3C12.5724 15.3 11.5703 14.348 11.5703 13.175C11.5703 12.002 12.5724 11.05 13.8072 11.05C15.0419 11.05 16.044 12.002 16.044 13.175C16.044 14.348 15.0419 15.3 13.8072 15.3ZM0.833496 16.575H7.99139V9.775H0.833496V16.575ZM2.62297 11.475H6.20192V14.875H2.62297V11.475Z" fill="white"/>
</svg>