<svg width="28" height="20" viewBox="0 0 28 20" fill="none" xmlns="http://www.w3.org/2000/svg">
    <path d="M27.7272 4.83371C27.7272 4.83371 27.46 2.94716 26.637 2.11878C25.5948 1.02854 24.4298 1.02319 23.8953 0.959058C20.0688 0.681152 14.3236 0.681152 14.3236 0.681152H14.3129C14.3129 0.681152 8.56773 0.681152 4.74118 0.959058C4.20674 1.02319 3.04168 1.02854 1.99953 2.11878C1.1765 2.94716 0.914625 4.83371 0.914625 4.83371C0.914625 4.83371 0.636719 7.05162 0.636719 9.26418V11.3378C0.636719 13.5503 0.909281 15.7683 0.909281 15.7683C0.909281 15.7683 1.1765 17.6548 1.99418 18.4832C3.03633 19.5734 4.40448 19.536 5.01374 19.6536C7.20492 19.862 14.3183 19.9262 14.3183 19.9262C14.3183 19.9262 20.0688 19.9155 23.8953 19.6429C24.4298 19.5788 25.5948 19.5734 26.637 18.4832C27.46 17.6548 27.7272 15.7683 27.7272 15.7683C27.7272 15.7683 27.9998 13.5557 27.9998 11.3378V9.26418C27.9998 7.05162 27.7272 4.83371 27.7272 4.83371ZM11.4911 13.855V6.16445L18.8823 10.0231L11.4911 13.855Z" fill="white"/>
</svg>