<svg width="25" height="25" viewBox="0 0 25 25" fill="none" xmlns="http://www.w3.org/2000/svg">
<path d="M14.2456 2.25803C14.3589 2.41411 14.2195 2.63204 14.0289 2.60284C13.5304 2.52647 13.0198 2.48685 12.5 2.48685C11.9802 2.48685 11.4696 2.52647 10.9711 2.60284C10.7805 2.63204 10.6411 2.41411 10.7544 2.25803L12.3294 0.0870162C12.4135 -0.0290055 12.5865 -0.0290053 12.6706 0.0870164L14.2456 2.25803Z" fill="white"/>
<path d="M18.4162 4.42069C18.2607 4.30663 18.3162 4.05397 18.5067 4.02367L21.1567 3.60204C21.2982 3.57952 21.4205 3.70179 21.398 3.84335L20.9763 6.49333C20.946 6.68378 20.6934 6.73931 20.5793 6.58381C19.973 5.75717 19.2428 5.02703 18.4162 4.42069Z" fill="white"/>
<path d="M22.3972 10.9711C22.368 10.7805 22.5859 10.6411 22.742 10.7544L24.913 12.3294C25.029 12.4135 25.029 12.5865 24.913 12.6706L22.742 14.2456C22.5859 14.3589 22.368 14.2195 22.3972 14.0289C22.4735 13.5304 22.5131 13.0198 22.5131 12.5C22.5131 11.9802 22.4735 11.4696 22.3972 10.9711Z" fill="white"/>
<path d="M20.5793 18.4162C20.6934 18.2607 20.946 18.3162 20.9763 18.5067L21.398 21.1567C21.4205 21.2982 21.2982 21.4205 21.1567 21.398L18.5067 20.9763C18.3162 20.946 18.2607 20.6934 18.4162 20.5793C19.2428 19.973 19.973 19.2428 20.5793 18.4162Z" fill="white"/>
<path d="M14.0289 22.3972C14.2195 22.368 14.3589 22.5859 14.2456 22.742L12.6706 24.913C12.5865 25.029 12.4135 25.029 12.3294 24.913L10.7544 22.742C10.6411 22.5859 10.7805 22.368 10.9711 22.3972C11.4696 22.4735 11.9802 22.5131 12.5 22.5131C13.0198 22.5131 13.5304 22.4735 14.0289 22.3972Z" fill="white"/>
<path d="M6.58381 20.5793C6.73931 20.6934 6.68378 20.946 6.49333 20.9763L3.84335 21.398C3.70179 21.4205 3.57952 21.2982 3.60204 21.1567L4.02367 18.5067C4.05397 18.3162 4.30663 18.2607 4.42069 18.4162C5.02703 19.2428 5.75717 19.973 6.58381 20.5793Z" fill="white"/>
<path d="M2.60284 14.0289C2.63204 14.2195 2.41411 14.3589 2.25803 14.2456L0.0870162 12.6706C-0.0290055 12.5865 -0.0290053 12.4135 0.0870164 12.3294L2.25803 10.7544C2.41411 10.6411 2.63204 10.7805 2.60284 10.9711C2.52647 11.4696 2.48685 11.9802 2.48685 12.5C2.48685 13.0198 2.52647 13.5304 2.60284 14.0289Z" fill="white"/>
<path d="M4.42069 6.58381C4.30663 6.73931 4.05397 6.68378 4.02367 6.49333L3.60204 3.84335C3.57952 3.70179 3.70179 3.57952 3.84335 3.60204L6.49333 4.02367C6.68378 4.05397 6.73931 4.30663 6.58381 4.42069C5.75717 5.02703 5.02703 5.75717 4.42069 6.58381Z" fill="white"/>
<path fillRule="evenodd" clipRule="evenodd" d="M20.9321 12.5C20.9321 17.1569 17.1569 20.9321 12.5 20.9321C7.84307 20.9321 4.06788 17.1569 4.06788 12.5C4.06788 7.84307 7.84307 4.06788 12.5 4.06788C17.1569 4.06788 20.9321 7.84307 20.9321 12.5ZM18.8241 12.5C18.8241 15.9927 15.9927 18.8241 12.5 18.8241C9.0073 18.8241 6.17591 15.9927 6.17591 12.5C6.17591 9.0073 9.0073 6.17591 12.5 6.17591C15.9927 6.17591 18.8241 9.0073 18.8241 12.5Z" fill="white"/>
</svg>
