<?xml version="1.0" encoding="UTF-8"?>
<svg id="Layer_1" data-name="Layer 1" xmlns="http://www.w3.org/2000/svg" viewBox="0 0 1080 1080">
  <defs>
    <style>
      .cls-1 {
        fill: #00a79d;
      }

      .cls-1, .cls-2, .cls-3 {
        stroke-width: 0px;
      }

      .cls-2 {
        fill: #231f20;
      }

      .cls-3 {
        fill: #fff;
      }
    </style>
  </defs>
  <rect class="cls-1" x="198.32" y="55.63" width="683.36" height="683.36" rx="114.66" ry="114.66"/>
  <g>
    <rect class="cls-3" x="452.47" y="178.47" width="175.07" height="87.53"/>
    <polygon class="cls-3" points="627.53 266.01 627.53 353.54 540 353.54 540 441.08 627.53 441.08 627.53 616.15 715.07 616.15 715.07 266.01 627.53 266.01"/>
    <rect class="cls-3" x="364.93" y="266.01" width="87.53" height="175.07"/>
    <rect class="cls-3" x="364.93" y="528.61" width="87.53" height="87.53"/>
  </g>
  <g>
    <path class="cls-2" d="M508.2,955.79h-5.73c-4.6,0-8.81-1.74-12.63-5.21-3.82-3.47-5.73-7.51-5.73-12.11-2.35,5.29-5.92,9.54-10.72,12.78-4.41,3.04-8.71,4.55-12.92,4.55-4.6,0-8.81-1.74-12.63-5.21-3.82-3.47-5.73-7.51-5.73-12.11-2.35,5.29-5.97,9.54-10.87,12.78-4.41,3.04-8.71,4.55-12.92,4.55-5.58,0-10.72-2.25-15.42-6.75-6.66,20.65-16.74,36.42-30.25,47.28-12.83,10.38-27.85,15.57-45.08,15.57-18.31,0-32.75-5.04-43.32-15.13-10.87-10.57-16.3-25.5-16.3-44.79,0-14,4.26-29.02,12.78-45.08,9.3-17.33,20.61-29.71,33.92-37.15,2.06-1.17,3.97-1.76,5.73-1.76,4.5,0,6.75,2.3,6.75,6.9,0,2.74-1.17,4.9-3.52,6.46-11.94,8.03-21.44,18.85-28.49,32.45-6.46,12.73-9.69,25.55-9.69,38.47,0,11.65,4.01,21.34,12.04,29.07,8.42,7.93,19.38,11.89,32.89,11.89,16.84,0,31.08-7.39,42.73-22.17,12.33-15.57,18.5-35.54,18.5-59.91,0-4.21-.2-8.52-.59-12.92-.39-4.7,2.06-7.05,7.34-7.05s8.47,2.35,8.96,7.05c1.08,9.69,1.17,20.02.29,30.98,2.25,6.36,6.02,9.54,11.31,9.54s10.38-5.48,15.86-16.45c4.6-9.2,7.54-17.77,8.81-25.7.68-4.11,3.28-6.17,7.78-6.17,4.8,0,7.2,1.86,7.2,5.58,0,3.13-.73,8.03-2.2,14.68-1.47,6.66-2.2,11.7-2.2,15.12,0,8.62,2.3,12.92,6.9,12.92,5.09,0,10.33-5.48,15.71-16.45,4.6-9.2,7.54-17.77,8.81-25.7.68-4.11,3.28-6.17,7.78-6.17,4.8,0,7.19,1.86,7.19,5.58,0,3.13-.73,7.98-2.2,14.54-1.47,6.56-2.2,11.55-2.2,14.98,0,8.81,2.35,13.22,7.05,13.22h4.99v17.03Z"/>
    <path class="cls-2" d="M563.7,882.08c-1.27,16.84-7.05,32.94-17.33,48.31-11.26,16.94-23.69,25.4-37.3,25.4h-3.97v-17.03h3.97c10.28,0,19.24-6.31,26.87-18.94,6.36-10.77,10.67-23.59,12.92-38.47.68-4.31,3.13-6.46,7.34-6.46,5.38,0,7.88,2.4,7.49,7.2ZM569.87,838.62c-.78,4.31-3.01,8.3-6.68,11.97-3.67,3.67-7.47,5.51-11.38,5.51-4.11,0-7.42-1.44-9.91-4.33-2.5-2.89-3.74-6.44-3.74-10.65,0-5.38,2.03-10.3,6.09-14.76,4.06-4.45,8.79-6.68,14.17-6.68,8.03,0,12.04,4.26,12.04,12.78,0,1.86-.2,3.92-.59,6.17Z"/>
    <path class="cls-2" d="M664.29,955.79h-2.94c-9.2,0-16.59-4.6-22.17-13.8-9.3,21.63-23.84,43.76-43.61,66.37-1.76,1.96-3.87,2.94-6.31,2.94s-4.46-.78-6.31-2.35c-1.86-1.57-2.79-3.33-2.79-5.29,0-1.67.68-3.23,2.06-4.7,11.55-12.24,22.37-26.87,32.45-43.91,10.47-17.42,17.91-33.53,22.32-48.31,1.37-4.7,4.21-7.05,8.52-7.05,4.6,0,6.9,2.2,6.9,6.61,0,.59-.05,1.17-.15,1.76-1.57,7.44-2.35,13.17-2.35,17.18,0,9.01,4.01,13.51,12.04,13.51h2.35v17.03ZM658.27,850.36c-.78,4.31-3.01,8.3-6.68,11.97-3.67,3.67-7.47,5.51-11.38,5.51s-7.29-1.52-9.84-4.55c-2.45-2.74-3.67-6.22-3.67-10.43,0-5.38,2.03-10.3,6.09-14.76,4.06-4.45,8.79-6.68,14.17-6.68,7.93,0,11.89,4.26,11.89,12.77,0,1.86-.2,3.92-.59,6.17Z"/>
    <path class="cls-2" d="M724.79,955.79h-2.94c-6.66,0-12.26-2.1-16.81-6.31-4.55-4.21-6.93-8.86-7.12-13.95-4.31,5.48-9.74,10.23-16.3,14.24-6.56,4.01-12.04,6.02-16.45,6.02h-3.82v-17.03h4.55c8.32,0,15.91-4.26,22.76-12.78,6.56-8.32,10.47-18.11,11.75-29.37.49-4.21,2.98-6.31,7.49-6.31,5.97,0,8.42,2.35,7.34,7.05-1.86,8.32-3.13,14.56-3.82,18.72-.69,4.16-1.03,7.47-1.03,9.91,0,8.52,4.01,12.78,12.04,12.78h2.35v17.03ZM692.34,991.62c-.69,3.52-2.62,6.7-5.8,9.55-3.18,2.84-6.39,3.96-9.62,3.38-5.87-1.08-8.81-4.65-8.81-10.72,0-2.06.39-3.92,1.17-5.58,1.17-3.62,3.38-6.53,6.61-8.74,3.23-2.2,6.36-3.01,9.4-2.42,4.99.88,7.49,4.11,7.49,9.69,0,1.47-.15,3.08-.44,4.85ZM717.89,991.62c-.59,3.52-2.47,6.73-5.65,9.62-3.18,2.89-6.39,4.04-9.62,3.45-5.87-1.08-8.81-4.8-8.81-11.16,0-4.31,1.76-8.32,5.29-12.04,3.52-3.72,7.39-5.19,11.6-4.41,5.09.88,7.64,4.21,7.64,9.99,0,1.37-.15,2.89-.44,4.55Z"/>
    <path class="cls-2" d="M780.44,882.08c-1.27,16.84-7.05,32.94-17.33,48.31-11.26,16.94-23.69,25.4-37.3,25.4h-3.97v-17.03h3.97c10.28,0,19.24-6.31,26.87-18.94,6.36-10.77,10.67-23.59,12.92-38.47.68-4.31,3.13-6.46,7.34-6.46,5.38,0,7.88,2.4,7.49,7.2ZM766.64,1006.89c-.78,4.31-3.01,8.3-6.68,11.97-3.67,3.67-7.47,5.51-11.38,5.51-4.11,0-7.42-1.44-9.91-4.33-2.5-2.89-3.74-6.44-3.74-10.65,0-5.38,2.03-10.3,6.09-14.76,4.06-4.46,8.79-6.68,14.17-6.68,8.03,0,12.04,4.26,12.04,12.78,0,1.86-.2,3.91-.59,6.17Z"/>
  </g>
</svg>